<?xml version="1.0" encoding="UTF-8"?>
<svg id="Layer_1" xmlns="http://www.w3.org/2000/svg" version="1.1" viewBox="0 0 497.38 483.36">
  <!-- Generator: Adobe Illustrator 30.4.0, SVG Export Plug-In . SVG Version: 2.1.3 Build 187)  -->
  <defs>
    <style>
      .st0 {
        fill: #C9A961;
      }
    </style>
  </defs>
  <path class="st0" d="M487.98,311.38c-43.44,150.77-221.1,212.13-359.2,144.83C46.44,416.09-2.71,331.98.12,240.61c1.2-38.65,8.07-74.92,26.19-109.03C58.33,71.28,113.37,28.56,179.29,10.6,202.47,4.29,225.42.18,249.73,0l31.01,4.68c62.73,9.46,121.02,37.13,161.64,86.52,50.38,61.26,67.61,143.8,45.6,220.18ZM279.07,11.66l-27.42-1.78.3,59.96,45.42,27.11c1.88,1.12,5.98,6.45,4.07,6.98l-8.79,2.43.62,43.12c6.32,1.01,11.96,1.81,13.75,4.54,3.92,5.98,4.42,20.72.52,25.28-1.65,1.93-6.86,3.15-10.04,3.17l-63.98.32c-14.38.07-28.1,1.39-42.78-1.55-4.97-8.15-4.07-20.91-.06-29.08l14.11-3.82-.68-41.52c-4.93-.55-9.8-2.29-9.26-4.28.43-1.59,3.37-4.67,4.96-5.59l45.97-26.74-.33-60.49-15.6-.11-28.17,5.98c-1.41-1.57-5.56-4.94-6.04-3.6l-2.02,5.65C116.66,36.16,54.29,91.28,24.19,164.41c-5.03,14.15-8.24,26.84-10.73,41.98l-4.89-4.08c.19,2.64,1.55,6.9,3.23,10-11.55,92.07,25.81,182.71,106.9,230.09,88.71,51.83,202.39,44.83,283.71-18.2,49.41-38.3,78.47-94.39,83.24-156.46,2.24-29.2,1.69-58.16-8.27-85.48l-10.1-27.7c-15-41.16-63.22-93.61-104.14-115.34-.66-1.41-1.79-5.31-3.08-4.93l-5.06,1.5c-24.59-10.11-49.19-18.37-75.94-24.13ZM293.8,100.05l-37.43-22.6c-4.63-2.8-10.59-1.92-15.1.72l-38.29,22.32,90.82-.43ZM234.08,146.53c.33,1.68,5.45,4.05,5.95,2.73.37-.99,1.51-4.48,2.84-5.69v-34.23l8.93-2.99-41.14-.19.08,41.65c2.05.55,7.3.89,8.7.6l.51-37.81c3.09-2.57,11.49-2.94,14.13-.57v36.51ZM266.29,143.67l.48-37.49-9.13.56.7,38.99c.03,1.52,3.09,4.06,4.44,3.71s3.49-4.14,3.51-5.76ZM286.79,147.44l-.67-42.3-14.45.48c.92,1.37,3.44,5.95,3.42,7.78l-.42,33.92,12.14.11ZM295.19,162.24c1.49.78,7.49,2.44,7.44.71l-.2-7.43c-.03-1.27-4.2-1.87-5.84-2.33l-96.48.03c-1.66.38-5.6.93-5.52,2.24l.38,6.51,100.22.26ZM304.88,175.76l-2.33-10.86h-107.77c-2.58,2-2.31,11.41.38,11.71h71.94l37.78-.86Z"/>
  <path class="st0" d="M294,161.97l-97.67-.26-.37-6.34c-.08-1.28,3.76-1.82,5.38-2.18l94.02-.03c1.6.45,5.66,1.03,5.69,2.27l.2,7.24c.05,1.68-5.79.07-7.25-.69Z"/>
  <path class="st0" d="M253.71,349.04l-51.66,44.62-22.25-21.23c4.19-3.77,8.18-9.38,8.87-15.47l16.25-144.65c1.22-10.87,10.79-17.58,19.85-18.36l38.9-3.36c11.32-.98,25.57,5.1,27.16,19.01l17.02,148.13c.85,7.37,4.05,12.35,9.28,18.85l-32.93,33.38-30.49-60.92ZM195.91,342.22c9.96-2.65,13.76-11.27,20.65-16.21l35.37-25.33,1.66,2-38.54,31.89c-3.22,2.67-6.85,8.29-8.95,12.14l48.19-33.09,2.01,1.9-17.9,14.51-17.18,14.35c-10.62,8.87-22.25,16.64-27.92,29.35l60.81-47.45,3.28,1.78-30.32,30.04,37.48-23.93,24.24-16.49-2.44,9.7c-.57-.86-2.64-4.02-3.34-3.04l-2.98,4.14-8.32,4.82,5.28,22.03c2.27,9.46,4.14,17.76,10.23,25.86l-8.35-50.25c7.68,16.24,7.4,33.24,17.62,48.47l-7.63-46.29c8.62,15.4,6.51,31.83,17.34,46.03-5.24-18.66-7-36.14-7.3-55.75-.47-31.36-7.07-61.45-10.24-92.64-.86-8.45-1.28-17.91-3.86-24.73-4.22-11.15-13.72-13.31-23.59-11.61-8.61,1.49-15.75,2.33-21.87,8.53l15.38-5.04c-12.4,9.8-22.24,15.83-31.73,27.13l28.89-16.84c-9.01,14.37-28,20.4-34.28,36.04,9.14-8.25,16.5-14.45,28.96-20.51-3.82,6.75-6.73,9.87-11.73,15.12l2.52,3.56-22.32,17.63,3.49,1.92,26.52-17.7c-4.73,14.51-30.85,25.22-39.99,41.96,17.99-8.85,29.4-22.04,46.24-27.83-12.49,16.5-40.38,26.66-49.86,45.9l36.14-24.45c6.91-4.68,13.24-8.32,22.35-9.58l-15.97,12.11c-15.3,11.61-32.24,20.72-44.12,37.82,17.73-9.42,33.33-19.66,47.53-32.82l28.37-26.29,2.23,2.13-17.34,17.88-12.78,11.02-31.9,27.18-20.02,22.92ZM274.98,376.57l-5.16-36.84c-.25-1.79-5.99-2.22-5.72-.83l.95,4.84,2.23,11.32c1.56,7.93,2.98,15.6,7.69,21.51Z"/>
  <path class="st0" d="M375.41,411.9c-7.07-4.32-16.36-9.49-24.22-6.76l-36.78,12.81,30.54-23.77c-24.73.22-40.62,28.59-62.35,38.14l33.06-34.96c13.34-14.1,28.47-25.32,44.52-36.23l2.81-1.91c.52-.35,2.29.8,2.33,1.43.07.94-.89,3.85-1.66,4.57l-16.22,15.18c12.95-3.42,20.76-11.17,36.38-9.18l-24.33,15c11.89-.47,22.15-3.44,31.51,4.12l-31.63,4.88c9.55,1.54,17.43,5.39,16.04,16.66Z"/>
  <path class="st0" d="M152.53,395.39l-44.15-5.88c10.81-5.69,19.97-3.81,31.15-3.85-8.24-5.48-16.72-6.14-23.07-16.81l34.74,9.51c-6.67-7.88-15.26-9.89-16.55-20.89l33.57,23.64c18.27,16.34,34.6,33.56,50.51,53.42-20.09-9.63-31.18-28.01-49.54-38.56l-16.66-.57Z"/>
  <path class="st0" d="M125.6,416.27c1.3-2.99,4.4-7.7,7.46-11.93l-12.79-.6c14.56-16.06,50.87-1.96,66.86,16.51l-31.91-13.06c-11.36-.18-16.78,2.13-29.61,9.08Z"/>
  <polygon class="st0" points="174.24 161.97 151.12 164.9 37.91 164.9 37.91 161.97 174.24 161.97"/>
  <polygon class="st0" points="456.72 164.9 342.44 164.9 322.26 161.97 455.72 161.97 456.72 164.9"/>
  <path class="st0" d="M459.39,202.52c1.39,1.3,4.18,3.72,3.43,3.85-.75.13-4.71,1.77-5.44,1.61l-41.15-9.45-56.38-14.74,19.02,2.11,80.53,16.63Z"/>
  <path class="st0" d="M388.22,328.69l-20.96-26.39c-13.7-16.53-27.15-32.42-37.12-52.47l43.35,50.15c7.08,8.28,14.74,15.87,14.73,28.71Z"/>
  <path class="st0" d="M114.72,331.88c.81-7.44,5.79-15.13,11.13-21.68l42.93-52.72-25.59,42.45-28.47,31.96Z"/>
  <path class="st0" d="M135.88,230.06l-78.06,55.02c21.26-25.94,49.42-39.34,76.31-58.03.95-.14,2.12,1.77,1.75,3.01Z"/>
  <path class="st0" d="M57.12,213.82c-6.17,1.97-12.29,3.37-19.52,1.78,21.19-9.66,43.29-14.82,66.19-20.18l41.45-9.71-88.12,28.1Z"/>
  <path class="st0" d="M363.53,143.07c-10.42,1.72-19.39,6.39-29.44,4.21l66.1-16.12c11.07-2.7,21.76-6.19,33.82-2.5-16,5.83-31.16,7.91-47.63,10.63l-22.85,3.78Z"/>
  <path class="st0" d="M399.52,252.25c13.16,9.43,27.88,16.72,37.73,31.19-27.1-14.13-48.75-33.19-71.74-52.42,12.99,4.91,23.03,13.37,34.01,21.23Z"/>
  <path class="st0" d="M268.93,449.15l14.35,1.39c-26.46,5.76-53.31,5.64-79.35-2.26l26.33,1.12-9.3-5.89,28.58,6.11c10.05,2.15,19.03-6.46,30.95-6.18l-11.56,5.71Z"/>
  <path class="st0" d="M147.22,146.3l-61.11-8.38c-9.97-1.37-20.78-1.19-29.02-9.63l86.98,15.71,3.14,2.3Z"/>
  <path class="st0" d="M311.84,128.34c3.85-4.07,10.67-6.76,17.05-9.57,20.13-8.85,37.65-21.31,60.25-27.4-22.4,16.71-47.97,26.71-77.3,36.96Z"/>
  <path class="st0" d="M331.41,424.33l-31.48,9.06c14.18-10.17,52.45-22.78,56.11-20.24,1.5,1.04,3.13,4.08,3.98,6.15l-28.62,5.04Z"/>
  <path class="st0" d="M200.58,434.32l-37.86-12.81c-10.43-3.53-17.08,6.83-21.79-.21-1.05-1.56,3.12-6.58,5.06-6.89,12.79-2.11,25.69,5.08,37.35,10.24,6.66,2.95,11.41,4.8,17.23,9.68Z"/>
  <path class="st0" d="M178.04,126.28c-22.34-6.74-41.28-16.8-59.13-29.59,22.04,7.13,40.87,18.64,59.13,29.59Z"/>
  <path class="st0" d="M196.04,80.87c-12.66-5.56-21.56-14.64-27.5-27.39,10.3,6.79,20.13,16.24,27.5,27.39Z"/>
  <path class="st0" d="M299.66,77.75c7.11-11.11,15.27-18.86,25.42-26.9-4.86,12.09-13.59,20.56-25.42,26.9Z"/>
  <polygon class="st0" points="345.66 217.54 316.09 198.94 318.12 196.54 344.3 213.66 345.66 217.54"/>
  <path class="st0" d="M274.98,376.57c-4.71-5.91-6.13-13.59-7.69-21.51l-2.23-11.32-.95-4.84c-.27-1.39,5.47-.96,5.72.83l5.16,36.84Z"/>
</svg>