<?xml version="1.0" encoding="UTF-8"?>
<svg id="Layer_1" xmlns="http://www.w3.org/2000/svg" version="1.1" viewBox="0 0 500 500">
  <!-- Generator: Adobe Illustrator 30.4.0, SVG Export Plug-In . SVG Version: 2.1.3 Build 187)  -->
  <defs>
    <style>
      .st0 {
        fill: #C9A961;
      }
    </style>
  </defs>
  <path class="st0" d="M500,250c0,138.07-111.93,250-250,250S0,388.07,0,250,111.93,0,250,0s250,111.93,250,250ZM489.79,248.07c0-132.94-107.77-240.71-240.71-240.71S8.37,115.13,8.37,248.07s107.77,240.71,240.71,240.71,240.71-107.77,240.71-240.71Z"/>
  <path class="st0" d="M398.08,302.71c9.65,9.48,10.46,21.38,2.86,31.29-9.5,12.38-23.01,21.54-37.93,26.71-13.47,9.6-29.24,9.41-44.39,13.87-41.88,12.33-82.72,20.2-128.17,20.61,41.61,14.86,86.31,14.67,129.68,6.9l24.93-7.48c-11.86,8.65-26.35,11.76-41.25,14.44-30.36,5.45-60.55,5.61-91.54,3.06-36.19-2.97-70.85-13.32-100.69-33.57-8-5.43-17.02-12.37-21.73-20.42-11.91-20.32-7.61-46.22,8.56-62.85,22.77-23.41,56.21-37.47,89.89-40.53-30.06,13.46-78.72,28.3-93.28,55.94-10.37,19.68-3.91,42.27,13.06,56.01,15.48,12.53,34.21,19.29,54.66,21.71,53.47,6.33,105.88-2.98,156.09-21.88,25.66-9.66,72.85-28.46,71.77-49.84-1.04-20.73-44.17-30.85-71.04-32.91-5.79-.44-10.78-1.51-15.56-4.07,33.33-.7,70.93.28,94.08,23.02Z"/>
  <path class="st0" d="M269.62,60.28l26.97-10.55c15.83-6.19,11.75-13.73,18.47-15.2,1.72-.38,6.02,1.73,7.1,3.16l10.66,14.11c18.51,4.31,29.06,19.87,27.8,38.09,11.81-1.24,20.79,2.7,27.26,9.38,7.32,7.57,8.98,18.51,4.84,28.97,6.51,1.2,12.9,3.54,15.57,7.91,3.97,6.5.15,20.09.15,20.09h-129l-16.71,36.7,25.67,6.21-29.1,45.78,10.37,6.02-9.92,18.14-27.81,47.61c-2.96-17.69,13.46-40.91,7.43-47.85-1.89-2.17-6.28-3.91-12.64-6.49l19.33-50.63-31.32-7.16,13.08-45.49H95.83s-7.83-4.25-9.15-6.32c-1.53-2.42-1.13-9.2.15-12.07,3.23-7.25,10.63-9.28,16.86-10.37,5.85-20.13,24.55-18.55,22.94-28.5-3.46-21.33,6.5-38.62,23.5-49.49,14.48-9.25,30.24-8.02,46.95-7.51,9.42-4.06,20.89-11.13,32.37-10.63l21.63.94-17.77,2.44c-7.92,1.09-15.33,1.77-23.4,4.89,11.48,3.81,19.06,9.31,26.31,18.19,6.87.09,16.5-.3,22.15,4.67,4.32,3.8,10.48,12.17,4.93,20.32-6.95-15.1-10.06-21.92-29.49-20.76-6.36-9.26-14.87-17.23-26.17-18.53l-8.87,4.89c-22.05-7.09-46.21-.33-59.62,18.55-17.76,25.02.88,43.13-11.88,45.54-10.87,2.05-17.88,9.98-17.97,20.2-5.35-.48-9.89-.21-12.51,1.94-4.35,3.56-6.84,7.54-6.48,14l34.27-.93,137.74,2.84h142.25s2.09-11.54-.55-15.34c-3.24-4.66-8.9-5.42-16.74-5.57l2.83-15.9c1.57-8.81-7.34-16.54-13.54-19.72-8.21-4.2-15.86-2.1-26.01,0,7.69-12.76,5.84-27.33-6.03-34.05l-19.27-10.92c-1.8-4.16-5.03-11.07-9.5-12.21-2.2.29-3.84,7.3-3.56,10.22-10.93,2.38-20.65,5.25-29.45,12.67l-13.13-2.3ZM263.67,251.96l-10.63-5.99,27.91-44.9-24.21-5.45,17.07-39.37-42.95-.39-9.14,42.9,30.24,9.16-13.02,35.43-5.91,14.46,12.86,7.1-4.04,23.54,21.83-36.49Z"/>
  <path class="st0" d="M391.73,363.36c15.54-7.14,29.06-15.64,39.79-28.01,7.16-12.97,5.99-27.79-1.86-40.14-26.01-20.95-57.43-29.99-90.85-27.75-11.13.75-22.08,1-32.85-3.24l55.83-.44,21.29.87-35.09-13.84c11.32-.64,21.53,4.72,32.34,9.37,29.72,12.79,79.22,33.07,78.13,64.65-.91,26.28-51.82,42.72-80.11,51.23-9.01,2.71-16.74,5.7-26.77,5.73l40.13-18.43ZM451.8,328.48c4.64-12.29-4.57-26.13-16.45-30.94,10.48,22.14,4.63,41.27-13.16,56.51,12.4-4.29,24.8-12.82,29.61-25.57Z"/>
  <path class="st0" d="M336.94,307.44l-27.16-10.75c17.95-.06,39.83,9.75,40.71,23.84.88,14.09-19.88,23.4-37.24,29.31-42.92,14.61-88.53,21.77-133.71,18.32-44.23-3.38-85.58-31.28-68.46-58.34,14.59-23.06,51.77-31.63,78.84-33.59-22.92,7.1-44.91,10.37-63.72,23.55-10.13,7.09-17.88,18.76-12.77,30.7,12.04,28.14,57.33,36.35,89.57,34.87,32.13-1.47,62.19-7.73,92.97-15.73,20.26-5.27,49.73-14.57,48.98-30.86-.15-3.33-4.52-9.94-8.01-11.32Z"/>
  <path class="st0" d="M278.8,432.41l-19.52,4.69c-25.29,6.08-47.5,3.72-72.34-1.89-14.97-3.38-31.7-1.78-46.32-7.18-12.82-4.73-25.67-11.16-29.72-24.94,11.12,11.87,21.54,20.25,37.45,23.05,18.48,3.25,37.68,3.38,56.69.82,24.71-3.33,47.62-3.54,72.58-.08.71.1,3.64.3,3.81.35s-1.95,5.01-2.63,5.17Z"/>
  <path class="st0" d="M215.55,461.02l-35.97-16.98,58,12.37c31.28,3.47,58.82-6.78,88.49-18.6-31.9,26.34-72.24,41.28-110.52,23.21Z"/>
  <path class="st0" d="M85.21,365.88l14.76,19.11-1.61,1.51-14.92-17.85-31.7-26.17c-10.22-8.43-15.39-23.89-9.46-36.58,11.76-25.16,65.18-48.56,96.09-51.33l-44.49,17.03c-13.83,6.91-27.2,14.34-38.72,24.15-13.94,11.88-13.75,29.99-1.42,42.97l31.46,27.16Z"/>
  <path class="st0" d="M190.16,342.77l51.22,4.31c-30.54,6.88-93.39,1.79-95.37-23.32-.93-11.84,13.89-24.05,28.42-25.34l-15.98,11.06c-2.35,1.62-5.21,6.74-5.63,9.34-1.81,11.17,19.32,22.43,37.34,23.94Z"/>
  <path class="st0" d="M422.11,214.27c1.52-5.67-3.34-12.31-7.49-13.86-5.52-2.06-10.8-.73-18.1,2.2-.27-7.31,9.27-8.66,16.16-6.95,8.88,2.2,15.17,9.01,14.19,17.49-.9,7.75-8.39,14.93-17.09,14.24-11.22-.9-17.38-9.3-22.32-18.53l-29.56-20.27,1.29-1.72,33.59,16.74c-1.42.9-3.49,2.26-3.46,2.22.03-.04.69,1.76.95,2.47l11.31,12.06c5.65,6.03,17.96,3.52,20.53-6.08Z"/>
  <path class="st0" d="M139.53,234.61c21.39-24.63,44.78-49.03,71.71-67.86-22.42,25.69-45.79,46.39-71.71,67.86Z"/>
  <path class="st0" d="M238.14,334.93c-6.92,1.03-13.66-3.73-15.49-9.66l21.18-7.55,14.26,7.26c-6.62,5.61-11.59,8.71-19.95,9.95Z"/>
  <path class="st0" d="M361.62,235.87c-25.8-21.59-50.69-43.47-72.38-68.01,28.63,19.42,50.59,43.11,72.38,68.01Z"/>
  <path class="st0" d="M296.89,427.18c24.46-5.68,50.55-8.29,73.25-22.82l21.71-18.09c-7.41,9.75-16.85,20.64-28.8,26.17-20.14,9.32-42.15,16.93-66.16,14.74Z"/>
  <path class="st0" d="M86.02,222.67c10.34,2.67,16.05-3.81,22.26-11.45,1.97,7.04-4.7,12.74-9.74,14.75-6.54,2.6-14.15,1.76-19.5-2.49-8.2-6.53-7.76-19.43.8-25.3,8.18-5.6,20.57-4.21,26.18,3.68l-19.31-1.95c-3.64-.37-9.04,6.63-9.55,10.09-.65,4.4,3.43,11.27,8.86,12.67Z"/>
  <path class="st0" d="M68.69,332.04l11.68,16.42c-10.05-4.53-17.55-14.29-18.79-25.24-1.88-16.64,15.83-33.18,32.9-38.54l-24.94,23.81c-6,5.73-5.83,16.56-.85,23.55Z"/>
  <path class="st0" d="M256.8,341.81l29.4-8.25c4.21-1.71,13.24-7.58,13.32-12.1.12-6.98-10.46-8.12-16.15-8.32,5.74-3.55,16.76-2.77,21.61,4.21,3.68,5.3-2.27,13.2-7.59,16.24-12.82,4.66-25.04,9.11-40.59,8.22Z"/>
  <path class="st0" d="M216.01,111.74c-8.17-5.72-14.22-5.1-21.7-1.6-4.42-5.7-9.92-12.04-17.37-12.08s-13.21,4.48-19.52,11c-.51-9.37,9.05-13.31,16.38-15.01,9.96-2.31,15.35,5.4,21.99,10.26,5.95.63,17.71-4.19,20.22,7.43Z"/>
  <path class="st0" d="M351.6,131.51c-6.97-2.83-13.1-3.11-20.72-1.44-3.2-4.34-8.92-10.15-14.79-10.96s-12.3,2.92-19.2,6.74c2.89-10.64,21.34-16.23,29.57-6.66,3.75,4.36,5.7,8.07,12.33,7.06,5.27-.8,10.86.47,12.81,5.26Z"/>
  <path class="st0" d="M146.09,186.55c-14.78,8.84-26.08,17.92-41.88,24.18,10.74-14.36,27.15-17.55,41.55-27.91l.33,3.73Z"/>
  <path class="st0" d="M432.62,270.58c-12.56-4.98-24.69-11.92-35.43-22.28,13.4,4.99,24.64,11.24,35.43,22.28Z"/>
</svg>